<svg width="1440" height="433" viewBox="0 0 1440 433" fill="none" xmlns="http://www.w3.org/2000/svg">
<path d="M1333.21 143.897C1794.82 67.752 2276.07 150.096 2459 200.787V339L-499.505 324.778C-501.388 306.544 -504.023 252.936 -499.505 184.376C-351.721 224.856 756.189 239.078 1333.21 143.897Z" fill="#B8CCE4"/>
<path d="M488.772 199.429C281.838 125.104 291.158 -34.8781 -52.8359 7.2956L-120.693 422.193L1422.4 630.732C1432.33 576.156 1460.02 415.457 1491.34 209.267C1394.73 318.23 695.707 273.754 488.772 199.429Z" fill="#CBDAEC"/>
<path d="M550.04 325.78C309.334 274.568 58.3859 329.95 -37 364.042V457L1505.7 447.434C1506.68 435.171 1508.06 399.116 1505.7 353.005C1428.64 380.23 850.923 389.796 550.04 325.78Z" fill="white"/>
<path d="M1211.5 196L1243.11 259H1179.89L1211.5 196Z" fill="white"/>
<rect x="1180" y="259" width="63" height="96" fill="white"/>
<path d="M1156 341.867L1176 323V355.145L1156 381V341.867Z" fill="white"/>
<path d="M1267 341.867L1247 323V355.145L1267 381V341.867Z" fill="white"/>
<rect x="1209" y="324" width="5" height="56" fill="white"/>
<circle cx="1211.5" cy="298.5" r="14.5" fill="#D9E5F3"/>
</svg>
